<?xml version="1.0" encoding="UTF-8"?><svg xmlns="http://www.w3.org/2000/svg" xmlns:xlink="http://www.w3.org/1999/xlink" fill-opacity="1" color-rendering="auto" color-interpolation="auto" text-rendering="auto" stroke="black" stroke-linecap="square" width="568" stroke-miterlimit="10" shape-rendering="auto" stroke-opacity="1" fill="black" stroke-dasharray="none" font-weight="normal" stroke-width="1" height="236" font-family="'Dialog'" font-style="normal" stroke-linejoin="miter" font-size="12px" stroke-dashoffset="0" image-rendering="auto">
  <!--Generated by ySVG 2.6-->
  <defs id="genericDefs"/>
  <g>
    <defs id="defs1">
      <clipPath clipPathUnits="userSpaceOnUse" id="clipPath1">
        <path d="M0 0 L568 0 L568 236 L0 236 L0 0 Z"/>
      </clipPath>
      <clipPath clipPathUnits="userSpaceOnUse" id="clipPath2">
        <path d="M-482 -51 L86 -51 L86 185 L-482 185 L-482 -51 Z"/>
      </clipPath>
      <clipPath clipPathUnits="userSpaceOnUse" id="clipPath3">
        <path d="M5 -50 L5 12 L85 12 L85 -50 Z"/>
      </clipPath>
      <clipPath clipPathUnits="userSpaceOnUse" id="clipPath4">
        <path d="M-481 73 L-481 101 L-401 101 L-401 73 Z"/>
      </clipPath>
      <clipPath clipPathUnits="userSpaceOnUse" id="clipPath5">
        <path d="M5 73 L5 101 L85 101 L85 73 Z"/>
      </clipPath>
      <clipPath clipPathUnits="userSpaceOnUse" id="clipPath6">
        <path d="M-481 156 L-481 184 L-401 184 L-401 156 Z"/>
      </clipPath>
      <clipPath clipPathUnits="userSpaceOnUse" id="clipPath7">
        <path d="M-384 156 L-384 184 L-304 184 L-304 156 Z"/>
      </clipPath>
      <clipPath clipPathUnits="userSpaceOnUse" id="clipPath8">
        <path d="M-188 156 L-188 184 L-108 184 L-108 156 Z"/>
      </clipPath>
      <clipPath clipPathUnits="userSpaceOnUse" id="clipPath9">
        <path d="M-286 156 L-286 184 L-206 184 L-206 156 Z"/>
      </clipPath>
      <clipPath clipPathUnits="userSpaceOnUse" id="clipPath10">
        <path d="M-91 156 L-91 184 L-11 184 L-11 156 Z"/>
      </clipPath>
      <clipPath clipPathUnits="userSpaceOnUse" id="clipPath11">
        <path d="M5 156 L5 184 L85 184 L85 156 Z"/>
      </clipPath>
      <clipPath clipPathUnits="userSpaceOnUse" id="clipPath12">
        <path d="M-286 -33 L-286 -5 L-206 -5 L-206 -33 Z"/>
      </clipPath>
    </defs>
    <g fill="white" text-rendering="geometricPrecision" shape-rendering="geometricPrecision" transform="translate(482,51)" stroke="white">
      <rect x="-482" width="568" height="236" y="-51" clip-path="url(#clipPath2)" stroke="none"/>
    </g>
    <g fill="white" text-rendering="geometricPrecision" shape-rendering="geometricPrecision" transform="matrix(1,0,0,1,482,51)" stroke="white">
      <rect x="5.7437" width="80" height="62" y="-50.0719" clip-path="url(#clipPath2)" stroke="none"/>
    </g>
    <g text-rendering="geometricPrecision" stroke-miterlimit="1.45" shape-rendering="geometricPrecision" transform="matrix(1,0,0,1,482,51)" stroke-linecap="butt">
      <rect fill="none" x="5.7437" width="80" height="62" y="-50.0719" clip-path="url(#clipPath2)"/>
      <text x="27.6878" font-size="13px" y="-32.0021" clip-path="url(#clipPath3)" font-family="sans-serif" stroke="none" font-weight="bold" xml:space="preserve">Entity</text>
      <line stroke-linecap="square" clip-path="url(#clipPath3)" fill="none" x1="6" x2="84" y1="-24" y2="-24" stroke-miterlimit="10"/>
      <text x="10.7437" xml:space="preserve" y="-7.0812" clip-path="url(#clipPath3)" font-family="sans-serif" stroke="none">name: String</text>
      <text x="10.7437" xml:space="preserve" y="7.62" clip-path="url(#clipPath3)" font-family="sans-serif" stroke="none">state: State</text>
      <line stroke-linecap="square" clip-path="url(#clipPath3)" fill="none" x1="6" x2="84" y1="15" y2="15" stroke-miterlimit="10"/>
    </g>
    <g fill="white" text-rendering="geometricPrecision" shape-rendering="geometricPrecision" transform="matrix(1,0,0,1,482,51)" stroke="white">
      <rect x="-481.6281" width="80" height="28" y="73.4562" clip-path="url(#clipPath2)" stroke="none"/>
    </g>
    <g text-rendering="geometricPrecision" stroke-miterlimit="1.45" shape-rendering="geometricPrecision" transform="matrix(1,0,0,1,482,51)" stroke-linecap="butt">
      <rect fill="none" x="-481.6281" width="80" height="28" y="73.4562" clip-path="url(#clipPath2)"/>
      <text x="-475.5659" font-size="13px" y="91.5261" clip-path="url(#clipPath4)" font-family="sans-serif" stroke="none" font-weight="bold" xml:space="preserve">InputEntity</text>
    </g>
    <g fill="white" text-rendering="geometricPrecision" shape-rendering="geometricPrecision" transform="matrix(1,0,0,1,482,51)" stroke="white">
      <rect x="5.7437" width="80" height="28" y="73.4562" clip-path="url(#clipPath2)" stroke="none"/>
    </g>
    <g text-rendering="geometricPrecision" stroke-miterlimit="1.45" shape-rendering="geometricPrecision" transform="matrix(1,0,0,1,482,51)" stroke-linecap="butt">
      <rect fill="none" x="5.7437" width="80" height="28" y="73.4562" clip-path="url(#clipPath2)"/>
      <text x="31.6583" font-size="13px" y="91.5261" clip-path="url(#clipPath5)" font-family="sans-serif" stroke="none" font-weight="bold" xml:space="preserve">Path</text>
    </g>
    <g fill="white" text-rendering="geometricPrecision" shape-rendering="geometricPrecision" transform="matrix(1,0,0,1,482,51)" stroke="white">
      <rect x="-481.6281" width="80" height="28" y="156.9125" clip-path="url(#clipPath2)" stroke="none"/>
    </g>
    <g text-rendering="geometricPrecision" stroke-miterlimit="1.45" shape-rendering="geometricPrecision" transform="matrix(1,0,0,1,482,51)" stroke-linecap="butt">
      <rect fill="none" x="-481.6281" width="80" height="28" y="156.9125" clip-path="url(#clipPath2)"/>
      <text x="-464.3749" font-size="13px" y="174.9823" clip-path="url(#clipPath6)" font-family="sans-serif" stroke="none" font-weight="bold" xml:space="preserve">Module</text>
    </g>
    <g fill="white" text-rendering="geometricPrecision" shape-rendering="geometricPrecision" transform="matrix(1,0,0,1,482,51)" stroke="white">
      <rect x="-384.0563" width="80" height="28" y="156.9125" clip-path="url(#clipPath2)" stroke="none"/>
    </g>
    <g text-rendering="geometricPrecision" stroke-miterlimit="1.45" shape-rendering="geometricPrecision" transform="matrix(1,0,0,1,482,51)" stroke-linecap="butt">
      <rect fill="none" x="-384.0563" width="80" height="28" y="156.9125" clip-path="url(#clipPath2)"/>
      <text x="-358.1417" font-size="13px" y="174.9823" clip-path="url(#clipPath7)" font-family="sans-serif" stroke="none" font-weight="bold" xml:space="preserve">Rule</text>
    </g>
    <g fill="white" text-rendering="geometricPrecision" shape-rendering="geometricPrecision" transform="matrix(1,0,0,1,482,51)" stroke="white">
      <rect x="-188.9125" width="80" height="28" y="156.9125" clip-path="url(#clipPath2)" stroke="none"/>
    </g>
    <g text-rendering="geometricPrecision" stroke-miterlimit="1.45" shape-rendering="geometricPrecision" transform="matrix(1,0,0,1,482,51)" stroke-linecap="butt">
      <rect fill="none" x="-188.9125" width="80" height="28" y="156.9125" clip-path="url(#clipPath2)"/>
      <text x="-178.537" font-size="13px" y="174.9823" clip-path="url(#clipPath8)" font-family="sans-serif" stroke="none" font-weight="bold" xml:space="preserve">Resource</text>
    </g>
    <g fill="white" text-rendering="geometricPrecision" shape-rendering="geometricPrecision" transform="matrix(1,0,0,1,482,51)" stroke="white">
      <rect x="-286.4844" width="80" height="28" y="156.9125" clip-path="url(#clipPath2)" stroke="none"/>
    </g>
    <g text-rendering="geometricPrecision" stroke-miterlimit="1.45" shape-rendering="geometricPrecision" transform="matrix(1,0,0,1,482,51)" stroke-linecap="butt">
      <rect fill="none" x="-286.4844" width="80" height="28" y="156.9125" clip-path="url(#clipPath2)"/>
      <text x="-275.0203" font-size="13px" y="174.9823" clip-path="url(#clipPath9)" font-family="sans-serif" stroke="none" font-weight="bold" xml:space="preserve">Template</text>
    </g>
    <g fill="white" text-rendering="geometricPrecision" shape-rendering="geometricPrecision" transform="matrix(1,0,0,1,482,51)" stroke="white">
      <rect x="-91.3406" width="80" height="28" y="156.9125" clip-path="url(#clipPath2)" stroke="none"/>
    </g>
    <g text-rendering="geometricPrecision" stroke-miterlimit="1.45" shape-rendering="geometricPrecision" transform="matrix(1,0,0,1,482,51)" stroke-linecap="butt">
      <rect fill="none" x="-91.3406" width="80" height="28" y="156.9125" clip-path="url(#clipPath2)"/>
      <text x="-76.6265" font-size="13px" y="174.9823" clip-path="url(#clipPath10)" font-family="sans-serif" stroke="none" font-weight="bold" xml:space="preserve">Element</text>
    </g>
    <g fill="white" text-rendering="geometricPrecision" shape-rendering="geometricPrecision" transform="matrix(1,0,0,1,482,51)" stroke="white">
      <rect x="5.7437" width="80" height="28" y="156.9125" clip-path="url(#clipPath2)" stroke="none"/>
    </g>
    <g text-rendering="geometricPrecision" stroke-miterlimit="1.45" shape-rendering="geometricPrecision" transform="matrix(1,0,0,1,482,51)" stroke-linecap="butt">
      <rect fill="none" x="5.7437" width="80" height="28" y="156.9125" clip-path="url(#clipPath2)"/>
      <text x="19.0138" font-size="13px" y="174.9823" clip-path="url(#clipPath11)" font-family="sans-serif" stroke="none" font-weight="bold" xml:space="preserve">Property</text>
    </g>
    <g fill="white" text-rendering="geometricPrecision" shape-rendering="geometricPrecision" transform="matrix(1,0,0,1,482,51)" stroke="white">
      <rect x="-286.4844" width="80" height="28" y="-33.0719" clip-path="url(#clipPath2)" stroke="none"/>
    </g>
    <g text-rendering="geometricPrecision" stroke-miterlimit="1.45" shape-rendering="geometricPrecision" transform="matrix(1,0,0,1,482,51)" stroke-linecap="butt">
      <rect fill="none" x="-286.4844" width="80" height="28" y="-33.0719" clip-path="url(#clipPath2)"/>
      <text x="-281.5171" font-size="13px" y="-15.0021" clip-path="url(#clipPath12)" font-family="sans-serif" stroke="none" font-weight="bold" xml:space="preserve">PictoGraph</text>
      <path fill="none" d="M-441.6281 73.4289 L-441.6281 49.7555 L45.7438 49.7555 L45.7438 26.9475" clip-path="url(#clipPath2)"/>
      <path fill="white" d="M45.7438 11.9475 L39.7438 27.9475 L51.7438 27.9475 Z" clip-path="url(#clipPath2)" stroke="none"/>
      <path fill="none" d="M45.7438 11.9475 L39.7438 27.9475 L51.7438 27.9475 Z" clip-path="url(#clipPath2)"/>
      <path fill="none" d="M-401.6187 87.4563 L5.7422 87.4563" clip-path="url(#clipPath2)"/>
      <text x="-392.5497" xml:space="preserve" y="104.1701" clip-path="url(#clipPath2)" font-family="sans-serif" stroke="none">affectedBy 1..*</text>
      <text x="-56.2" xml:space="preserve" y="101.8199" clip-path="url(#clipPath2)" font-family="sans-serif" stroke="none">affects 1..*</text>
      <path fill="none" d="M45.7438 73.4289 L45.7438 49.7555 L45.7438 34.9525 L45.7438 26.9235" clip-path="url(#clipPath2)"/>
      <path fill="white" d="M45.7438 11.9235 L39.7438 27.9235 L51.7438 27.9235 Z" clip-path="url(#clipPath2)" stroke="none"/>
      <path fill="none" d="M45.7438 11.9235 L39.7438 27.9235 L51.7438 27.9235 Z" clip-path="url(#clipPath2)"/>
      <path fill="none" d="M-441.6281 156.9352 L-441.6281 116.4674" clip-path="url(#clipPath2)"/>
      <path fill="white" d="M-441.6281 101.4674 L-447.6281 117.4674 L-435.6281 117.4674 Z" clip-path="url(#clipPath2)" stroke="none"/>
      <path fill="none" d="M-441.6281 101.4674 L-447.6281 117.4674 L-435.6281 117.4674 Z" clip-path="url(#clipPath2)"/>
      <path fill="none" d="M-344.0562 156.9361 L-344.0562 136.7555 L-441.6281 136.7555 L-441.6281 116.4661" clip-path="url(#clipPath2)"/>
      <path fill="white" d="M-441.6281 101.4661 L-447.6281 117.4661 L-435.6281 117.4661 Z" clip-path="url(#clipPath2)" stroke="none"/>
      <path fill="none" d="M-441.6281 101.4661 L-447.6281 117.4661 L-435.6281 117.4661 Z" clip-path="url(#clipPath2)"/>
      <path fill="none" d="M-148.9125 156.9361 L-148.9125 136.7555 L-441.6281 136.7555 L-441.6281 116.4661" clip-path="url(#clipPath2)"/>
      <path fill="white" d="M-441.6281 101.4661 L-447.6281 117.4661 L-435.6281 117.4661 Z" clip-path="url(#clipPath2)" stroke="none"/>
      <path fill="none" d="M-441.6281 101.4661 L-447.6281 117.4661 L-435.6281 117.4661 Z" clip-path="url(#clipPath2)"/>
      <path fill="none" d="M-246.4844 156.9361 L-246.4844 136.7555 L-441.6281 136.7555 L-441.6281 116.4661" clip-path="url(#clipPath2)"/>
      <path fill="white" d="M-441.6281 101.4661 L-447.6281 117.4661 L-435.6281 117.4661 Z" clip-path="url(#clipPath2)" stroke="none"/>
      <path fill="none" d="M-441.6281 101.4661 L-447.6281 117.4661 L-435.6281 117.4661 Z" clip-path="url(#clipPath2)"/>
      <path fill="none" d="M-51.3406 156.9361 L-51.3406 136.7555 L-441.6281 136.7555 L-441.6281 116.4661" clip-path="url(#clipPath2)"/>
      <path fill="white" d="M-441.6281 101.4661 L-447.6281 117.4661 L-435.6281 117.4661 Z" clip-path="url(#clipPath2)" stroke="none"/>
      <path fill="none" d="M-441.6281 101.4661 L-447.6281 117.4661 L-435.6281 117.4661 Z" clip-path="url(#clipPath2)"/>
      <path fill="none" d="M45.7438 156.9361 L45.7438 136.7555 L-441.6281 136.7555 L-441.6281 116.4661" clip-path="url(#clipPath2)"/>
      <path fill="white" d="M-441.6281 101.4661 L-447.6281 117.4661 L-435.6281 117.4661 Z" clip-path="url(#clipPath2)" stroke="none"/>
      <path fill="none" d="M-441.6281 101.4661 L-447.6281 117.4661 L-435.6281 117.4661 Z" clip-path="url(#clipPath2)"/>
      <path fill="none" d="M-199.4956 -19.0719 L5.7463 -19.0719" clip-path="url(#clipPath2)"/>
      <path d="M-206.4956 -19.0719 L-199.4956 -24.0719 L-192.4956 -19.0719 L-199.4956 -14.0719 Z" clip-path="url(#clipPath2)" stroke="none"/>
      <text x="-179.6762" xml:space="preserve" y="-1.9831" clip-path="url(#clipPath2)" font-family="sans-serif" stroke="none">paths, modules, rules, templates, </text>
      <text x="-189.6781" xml:space="preserve" y="12.7181" clip-path="url(#clipPath2)" font-family="sans-serif" stroke="none">resources, elements, properties 0..*</text>
    </g>
  </g>
</svg>
