<?xml version="1.0" encoding="UTF-8"?><svg xmlns="http://www.w3.org/2000/svg" xmlns:xlink="http://www.w3.org/1999/xlink" fill-opacity="1" color-rendering="auto" color-interpolation="auto" text-rendering="auto" stroke="black" stroke-linecap="square" width="637" stroke-miterlimit="10" shape-rendering="auto" stroke-opacity="1" fill="black" stroke-dasharray="none" font-weight="normal" stroke-width="1" height="427" font-family="'Dialog'" font-style="normal" stroke-linejoin="miter" font-size="12px" stroke-dashoffset="0" image-rendering="auto">
  <!--Generated by ySVG 2.6-->
  <defs id="genericDefs"/>
  <g>
    <defs id="defs1">
      <linearGradient x1="227.528" gradientUnits="userSpaceOnUse" x2="265.528" y1="252.392" y2="252.392" id="linearGradient1" spreadMethod="reflect">
        <stop stop-opacity="1" stop-color="rgb(153,204,255)" offset="0%"/>
        <stop stop-opacity="1" stop-color="rgb(153,204,255)" offset="100%"/>
      </linearGradient>
      <linearGradient x1="227.528" gradientUnits="userSpaceOnUse" x2="265.528" y1="336.968" y2="336.968" id="linearGradient2" spreadMethod="reflect">
        <stop stop-opacity="1" stop-color="rgb(153,204,255)" offset="0%"/>
        <stop stop-opacity="1" stop-color="rgb(153,204,255)" offset="100%"/>
      </linearGradient>
      <linearGradient x1="227.528" gradientUnits="userSpaceOnUse" x2="265.528" y1="396.968" y2="396.968" id="linearGradient3" spreadMethod="reflect">
        <stop stop-opacity="1" stop-color="rgb(153,204,255)" offset="0%"/>
        <stop stop-opacity="1" stop-color="rgb(153,204,255)" offset="100%"/>
      </linearGradient>
      <linearGradient x1="382.9589" gradientUnits="userSpaceOnUse" x2="435.6256" y1="281.084" y2="281.084" id="linearGradient4" spreadMethod="reflect">
        <stop stop-opacity="1" stop-color="rgb(204,255,255)" offset="0%"/>
        <stop stop-opacity="1" stop-color="rgb(204,255,255)" offset="100%"/>
      </linearGradient>
      <linearGradient x1="382.9589" gradientUnits="userSpaceOnUse" x2="435.6256" y1="336.968" y2="336.968" id="linearGradient5" spreadMethod="reflect">
        <stop stop-opacity="1" stop-color="rgb(204,255,255)" offset="0%"/>
        <stop stop-opacity="1" stop-color="rgb(204,255,255)" offset="100%"/>
      </linearGradient>
      <linearGradient x1="382.9589" gradientUnits="userSpaceOnUse" x2="435.6256" y1="396.968" y2="396.968" id="linearGradient6" spreadMethod="reflect">
        <stop stop-opacity="1" stop-color="rgb(204,255,255)" offset="0%"/>
        <stop stop-opacity="1" stop-color="rgb(204,255,255)" offset="100%"/>
      </linearGradient>
      <linearGradient x1="382.9589" gradientUnits="userSpaceOnUse" x2="435.6256" y1="225.2" y2="225.2" id="linearGradient7" spreadMethod="reflect">
        <stop stop-opacity="1" stop-color="rgb(204,255,255)" offset="0%"/>
        <stop stop-opacity="1" stop-color="rgb(204,255,255)" offset="100%"/>
      </linearGradient>
      <clipPath clipPathUnits="userSpaceOnUse" id="clipPath1">
        <path d="M0 0 L637 0 L637 427 L0 427 L0 0 Z"/>
      </clipPath>
      <clipPath clipPathUnits="userSpaceOnUse" id="clipPath2">
        <path d="M191 58 L828 58 L828 485 L191 485 L191 58 Z"/>
      </clipPath>
      <clipPath clipPathUnits="userSpaceOnUse" id="clipPath3">
        <path d="M191 58 L191 85.5076 L828 85.5076 L828 58 Z"/>
      </clipPath>
      <clipPath clipPathUnits="userSpaceOnUse" id="clipPath4">
        <path d="M191 58 L191 89.9876 L828 89.9876 L828 58 Z"/>
      </clipPath>
    </defs>
    <g fill="white" text-rendering="geometricPrecision" shape-rendering="geometricPrecision" transform="translate(-191,-58)" stroke="white">
      <rect x="191" width="637" height="427" y="58" clip-path="url(#clipPath2)" stroke="none"/>
    </g>
    <g fill="rgb(255,255,153)" text-rendering="geometricPrecision" shape-rendering="geometricPrecision" transform="matrix(1,0,0,1,-191,-58)" stroke="rgb(255,255,153)">
      <circle r="15" clip-path="url(#clipPath2)" cx="598.2096" cy="411.968" stroke="none"/>
    </g>
    <g text-rendering="geometricPrecision" stroke-miterlimit="1.45" shape-rendering="geometricPrecision" transform="matrix(1,0,0,1,-191,-58)" stroke-linecap="butt">
      <circle fill="none" r="15" clip-path="url(#clipPath2)" cx="598.2096" cy="411.968"/>
      <text x="591.2076" xml:space="preserve" y="416.6819" clip-path="url(#clipPath2)" font-family="sans-serif" stroke="none">T2</text>
    </g>
    <g fill="rgb(255,255,153)" text-rendering="geometricPrecision" shape-rendering="geometricPrecision" transform="matrix(1,0,0,1,-191,-58)" stroke="rgb(255,255,153)">
      <circle r="15" clip-path="url(#clipPath2)" cx="598.2096" cy="296.084" stroke="none"/>
    </g>
    <g text-rendering="geometricPrecision" stroke-miterlimit="1.45" shape-rendering="geometricPrecision" transform="matrix(1,0,0,1,-191,-58)" stroke-linecap="butt">
      <circle fill="none" r="15" clip-path="url(#clipPath2)" cx="598.2096" cy="296.084"/>
      <text x="591.2076" xml:space="preserve" y="300.7979" clip-path="url(#clipPath2)" font-family="sans-serif" stroke="none">T2</text>
    </g>
    <g fill="rgb(255,255,153)" text-rendering="geometricPrecision" shape-rendering="geometricPrecision" transform="matrix(1,0,0,1,-191,-58)" stroke="rgb(255,255,153)">
      <circle r="15" clip-path="url(#clipPath2)" cx="598.2096" cy="240.2" stroke="none"/>
    </g>
    <g text-rendering="geometricPrecision" stroke-miterlimit="1.45" shape-rendering="geometricPrecision" transform="matrix(1,0,0,1,-191,-58)" stroke-linecap="butt">
      <circle fill="none" r="15" clip-path="url(#clipPath2)" cx="598.2096" cy="240.2"/>
      <text x="591.2076" xml:space="preserve" y="244.9139" clip-path="url(#clipPath2)" font-family="sans-serif" stroke="none">T2</text>
      <rect fill="none" x="435.6256" width="57" height="30" y="396.968" clip-path="url(#clipPath2)"/>
      <text x="440.1198" y="416.6819" clip-path="url(#clipPath2)" font-family="sans-serif" stroke="none" font-weight="bold" xml:space="preserve">Path C.1</text>
      <rect fill="none" x="435.6256" width="57" height="30" y="336.968" clip-path="url(#clipPath2)"/>
      <text x="440.1198" y="356.6819" clip-path="url(#clipPath2)" font-family="sans-serif" stroke="none" font-weight="bold" xml:space="preserve">Path B.1</text>
      <rect fill="none" x="435.6256" width="57" height="30" y="281.084" clip-path="url(#clipPath2)"/>
      <text x="440.1198" y="300.7979" clip-path="url(#clipPath2)" font-family="sans-serif" stroke="none" font-weight="bold" xml:space="preserve">Path A.2</text>
      <rect fill="none" x="435.6256" width="57" height="30" y="225.2" clip-path="url(#clipPath2)"/>
      <text x="440.1198" y="244.9139" clip-path="url(#clipPath2)" font-family="sans-serif" stroke="none" font-weight="bold" xml:space="preserve">Path A.1</text>
      <rect fill="none" x="191.8416" width="92.72" height="209.6384" y="225.2" clip-path="url(#clipPath2)"/>
      <text x="198.853" xml:space="preserve" y="243.2645" clip-path="url(#clipPath2)" font-family="sans-serif" stroke="none">EGX Module Z</text>
    </g>
    <g fill="url(#linearGradient1)" text-rendering="geometricPrecision" shape-rendering="geometricPrecision" transform="matrix(1,0,0,1,-191,-58)" stroke="url(#linearGradient1)">
      <rect x="208.528" width="57" height="30" y="252.392" clip-path="url(#clipPath2)" stroke="none"/>
    </g>
    <g text-rendering="geometricPrecision" stroke-miterlimit="1.45" shape-rendering="geometricPrecision" transform="matrix(1,0,0,1,-191,-58)" stroke-linecap="butt">
      <rect fill="none" x="208.528" width="57" height="30" y="252.392" clip-path="url(#clipPath2)"/>
      <text x="218.026" y="272.1059" clip-path="url(#clipPath2)" font-family="sans-serif" stroke="none" font-weight="bold" xml:space="preserve">Rule A</text>
    </g>
    <g fill="url(#linearGradient2)" text-rendering="geometricPrecision" shape-rendering="geometricPrecision" transform="matrix(1,0,0,1,-191,-58)" stroke="url(#linearGradient2)">
      <rect x="208.528" width="57" height="30" y="336.968" clip-path="url(#clipPath2)" stroke="none"/>
    </g>
    <g text-rendering="geometricPrecision" stroke-miterlimit="1.45" shape-rendering="geometricPrecision" transform="matrix(1,0,0,1,-191,-58)" stroke-linecap="butt">
      <rect fill="none" x="208.528" width="57" height="30" y="336.968" clip-path="url(#clipPath2)"/>
      <text x="218.026" y="356.6819" clip-path="url(#clipPath2)" font-family="sans-serif" stroke="none" font-weight="bold" xml:space="preserve">Rule B</text>
    </g>
    <g fill="url(#linearGradient3)" text-rendering="geometricPrecision" shape-rendering="geometricPrecision" transform="matrix(1,0,0,1,-191,-58)" stroke="url(#linearGradient3)">
      <rect x="208.528" width="57" height="30" y="396.968" clip-path="url(#clipPath2)" stroke="none"/>
    </g>
    <g text-rendering="geometricPrecision" stroke-miterlimit="1.45" shape-rendering="geometricPrecision" transform="matrix(1,0,0,1,-191,-58)" stroke-linecap="butt">
      <rect fill="none" x="208.528" width="57" height="30" y="396.968" clip-path="url(#clipPath2)"/>
      <text x="218.026" y="416.6819" clip-path="url(#clipPath2)" font-family="sans-serif" stroke="none" font-weight="bold" xml:space="preserve">Rule C</text>
    </g>
    <g fill="url(#linearGradient4)" text-rendering="geometricPrecision" shape-rendering="geometricPrecision" transform="matrix(1,0,0,1,-191,-58)" stroke="url(#linearGradient4)">
      <rect x="356.6256" width="79" height="30" y="281.084" clip-path="url(#clipPath2)" stroke="none"/>
    </g>
    <g text-rendering="geometricPrecision" stroke-miterlimit="1.45" shape-rendering="geometricPrecision" transform="matrix(1,0,0,1,-191,-58)" stroke-linecap="butt">
      <rect fill="none" x="356.6256" width="79" height="30" y="281.084" clip-path="url(#clipPath2)"/>
      <text x="361.444" y="300.7979" clip-path="url(#clipPath2)" font-family="sans-serif" stroke="none" font-weight="bold" xml:space="preserve">Promise A.2</text>
    </g>
    <g fill="url(#linearGradient5)" text-rendering="geometricPrecision" shape-rendering="geometricPrecision" transform="matrix(1,0,0,1,-191,-58)" stroke="url(#linearGradient5)">
      <rect x="356.6256" width="79" height="30" y="336.968" clip-path="url(#clipPath2)" stroke="none"/>
    </g>
    <g text-rendering="geometricPrecision" stroke-miterlimit="1.45" shape-rendering="geometricPrecision" transform="matrix(1,0,0,1,-191,-58)" stroke-linecap="butt">
      <rect fill="none" x="356.6256" width="79" height="30" y="336.968" clip-path="url(#clipPath2)"/>
      <text x="361.444" y="356.6819" clip-path="url(#clipPath2)" font-family="sans-serif" stroke="none" font-weight="bold" xml:space="preserve">Promise B.1</text>
    </g>
    <g fill="url(#linearGradient6)" text-rendering="geometricPrecision" shape-rendering="geometricPrecision" transform="matrix(1,0,0,1,-191,-58)" stroke="url(#linearGradient6)">
      <rect x="356.6256" width="79" height="30" y="396.968" clip-path="url(#clipPath2)" stroke="none"/>
    </g>
    <g text-rendering="geometricPrecision" stroke-miterlimit="1.45" shape-rendering="geometricPrecision" transform="matrix(1,0,0,1,-191,-58)" stroke-linecap="butt">
      <rect fill="none" x="356.6256" width="79" height="30" y="396.968" clip-path="url(#clipPath2)"/>
      <text x="361.444" y="416.6819" clip-path="url(#clipPath2)" font-family="sans-serif" stroke="none" font-weight="bold" xml:space="preserve">Promise C.1</text>
    </g>
    <g fill="rgb(204,255,204)" text-rendering="geometricPrecision" shape-rendering="geometricPrecision" transform="matrix(1,0,0,1,-191,-58)" stroke="rgb(204,255,204)">
      <rect x="643.2096" width="79" height="30" y="225.2" clip-path="url(#clipPath2)" stroke="none"/>
    </g>
    <g text-rendering="geometricPrecision" stroke-miterlimit="1.45" shape-rendering="geometricPrecision" transform="matrix(1,0,0,1,-191,-58)" stroke-linecap="butt">
      <rect fill="none" x="643.2096" width="79" height="30" y="225.2" clip-path="url(#clipPath2)"/>
      <text x="658.0328" y="244.9139" clip-path="url(#clipPath2)" font-family="sans-serif" stroke="none" font-weight="bold" xml:space="preserve">View A.1</text>
    </g>
    <g fill="rgb(204,255,204)" text-rendering="geometricPrecision" shape-rendering="geometricPrecision" transform="matrix(1,0,0,1,-191,-58)" stroke="rgb(204,255,204)">
      <rect x="643.2096" width="79" height="30" y="281.084" clip-path="url(#clipPath2)" stroke="none"/>
    </g>
    <g text-rendering="geometricPrecision" stroke-miterlimit="1.45" shape-rendering="geometricPrecision" transform="matrix(1,0,0,1,-191,-58)" stroke-linecap="butt">
      <rect fill="none" x="643.2096" width="79" height="30" y="281.084" clip-path="url(#clipPath2)"/>
      <text x="658.0328" y="300.7979" clip-path="url(#clipPath2)" font-family="sans-serif" stroke="none" font-weight="bold" xml:space="preserve">View A.2</text>
    </g>
    <g fill="rgb(204,255,204)" text-rendering="geometricPrecision" shape-rendering="geometricPrecision" transform="matrix(1,0,0,1,-191,-58)" stroke="rgb(204,255,204)">
      <rect x="643.2096" width="79" height="30" y="336.968" clip-path="url(#clipPath2)" stroke="none"/>
    </g>
    <g text-rendering="geometricPrecision" stroke-miterlimit="1.45" shape-rendering="geometricPrecision" transform="matrix(1,0,0,1,-191,-58)" stroke-linecap="butt">
      <rect fill="none" x="643.2096" width="79" height="30" y="336.968" clip-path="url(#clipPath2)"/>
      <text x="658.0328" y="356.6819" clip-path="url(#clipPath2)" font-family="sans-serif" stroke="none" font-weight="bold" xml:space="preserve">View B.1</text>
    </g>
    <g fill="rgb(204,255,204)" text-rendering="geometricPrecision" shape-rendering="geometricPrecision" transform="matrix(1,0,0,1,-191,-58)" stroke="rgb(204,255,204)">
      <rect x="643.2096" width="79" height="30" y="396.968" clip-path="url(#clipPath2)" stroke="none"/>
    </g>
    <g text-rendering="geometricPrecision" stroke-miterlimit="1.45" shape-rendering="geometricPrecision" transform="matrix(1,0,0,1,-191,-58)" stroke-linecap="butt">
      <rect fill="none" x="643.2096" width="79" height="30" y="396.968" clip-path="url(#clipPath2)"/>
      <text x="658.0328" y="416.6819" clip-path="url(#clipPath2)" font-family="sans-serif" stroke="none" font-weight="bold" xml:space="preserve">View C.1</text>
    </g>
    <g fill="url(#linearGradient7)" text-rendering="geometricPrecision" shape-rendering="geometricPrecision" transform="matrix(1,0,0,1,-191,-58)" stroke="url(#linearGradient7)">
      <rect x="356.6256" width="79" height="30" y="225.2" clip-path="url(#clipPath2)" stroke="none"/>
    </g>
    <g text-rendering="geometricPrecision" stroke-miterlimit="1.45" shape-rendering="geometricPrecision" transform="matrix(1,0,0,1,-191,-58)" stroke-linecap="butt">
      <rect fill="none" x="356.6256" width="79" height="30" y="225.2" clip-path="url(#clipPath2)"/>
      <text x="361.444" y="244.9139" clip-path="url(#clipPath2)" font-family="sans-serif" stroke="none" font-weight="bold" xml:space="preserve">Promise A.1</text>
      <rect fill="none" x="722.2096" width="57" height="30" y="281.084" clip-path="url(#clipPath2)"/>
      <text x="726.7037" y="300.7979" clip-path="url(#clipPath2)" font-family="sans-serif" stroke="none" font-weight="bold" xml:space="preserve">Path A.2</text>
      <rect fill="none" x="722.2096" width="57" height="30" y="336.968" clip-path="url(#clipPath2)"/>
      <text x="726.7037" y="356.6819" clip-path="url(#clipPath2)" font-family="sans-serif" stroke="none" font-weight="bold" xml:space="preserve">Path B.1</text>
      <rect fill="none" x="722.2096" width="57" height="30" y="396.968" clip-path="url(#clipPath2)"/>
      <text x="726.7037" y="416.6819" clip-path="url(#clipPath2)" font-family="sans-serif" stroke="none" font-weight="bold" xml:space="preserve">Path C.1</text>
      <rect fill="none" x="722.2096" width="57" height="30" y="225.2" clip-path="url(#clipPath2)"/>
      <text x="726.7037" y="244.9139" clip-path="url(#clipPath2)" font-family="sans-serif" stroke="none" font-weight="bold" xml:space="preserve">Path A.1</text>
    </g>
    <g fill="rgb(255,204,153)" text-rendering="geometricPrecision" shape-rendering="geometricPrecision" transform="matrix(1,0,0,1,-191,-58)" stroke="rgb(255,204,153)">
      <rect x="191.8416" y="58.8064" clip-path="url(#clipPath3)" width="421.368" rx="4" ry="4" height="113.68" stroke="none"/>
    </g>
    <g text-rendering="geometricPrecision" stroke-miterlimit="1.45" shape-rendering="geometricPrecision" transform="matrix(1,0,0,1,-191,-58)" stroke-linecap="butt">
      <rect x="191.8416" y="58.8064" clip-path="url(#clipPath2)" fill="none" width="421.368" rx="4" ry="4" height="113.68"/>
      <line y2="85.5076" fill="none" x1="191.8416" clip-path="url(#clipPath2)" x2="613.2096" y1="85.5076"/>
    </g>
    <g fill="rgb(255,204,153)" text-rendering="geometricPrecision" shape-rendering="geometricPrecision" transform="matrix(1,0,0,1,-191,-58)" stroke="rgb(255,204,153)">
      <rect x="334.1623" width="136.7266" height="18.7012" y="62.8064" clip-path="url(#clipPath2)" stroke="none"/>
    </g>
    <g stroke-linecap="butt" transform="matrix(1,0,0,1,-191,-58)" text-rendering="geometricPrecision" font-family="sans-serif" shape-rendering="geometricPrecision" font-weight="bold" stroke-miterlimit="1.45">
      <text x="336.1623" xml:space="preserve" y="76.8708" clip-path="url(#clipPath2)" stroke="none">PropertyAccesses (PA)</text>
      <text x="195.8416" xml:space="preserve" y="103.572" clip-path="url(#clipPath2)" font-weight="normal" stroke="none">M, Rule A, ..., ..., Resource R1, Object O1, Property P1, Value V1, Path A.1</text>
      <text x="195.8416" xml:space="preserve" y="118.2732" clip-path="url(#clipPath2)" font-weight="normal" stroke="none">M, Rule A, ..., ..., Resource R1, Object O1, Property P2, Value V2, Path A.1</text>
      <text x="195.8416" xml:space="preserve" y="132.9744" clip-path="url(#clipPath2)" font-weight="normal" stroke="none">M, Rule A, ..., ..., Resource R1, Object O2, Property P3, Value V3, Path A.1</text>
      <text x="195.8416" xml:space="preserve" y="147.6755" clip-path="url(#clipPath2)" font-weight="normal" stroke="none">...</text>
      <text x="195.8416" xml:space="preserve" y="162.3767" clip-path="url(#clipPath2)" font-weight="normal" stroke="none">M, Rule C, ..., ..., Resource R1, Object O9, Property P9, Value V9, Path C.1</text>
    </g>
    <g fill="rgb(255,255,153)" text-rendering="geometricPrecision" shape-rendering="geometricPrecision" transform="matrix(1,0,0,1,-191,-58)" stroke="rgb(255,255,153)">
      <circle r="15" clip-path="url(#clipPath2)" cx="315.008" cy="267.392" stroke="none"/>
    </g>
    <g text-rendering="geometricPrecision" stroke-miterlimit="1.45" shape-rendering="geometricPrecision" transform="matrix(1,0,0,1,-191,-58)" stroke-linecap="butt">
      <circle fill="none" r="15" clip-path="url(#clipPath2)" cx="315.008" cy="267.392"/>
      <text x="308.006" xml:space="preserve" y="272.1059" clip-path="url(#clipPath2)" font-family="sans-serif" stroke="none">T1</text>
    </g>
    <g fill="rgb(255,255,153)" text-rendering="geometricPrecision" shape-rendering="geometricPrecision" transform="matrix(1,0,0,1,-191,-58)" stroke="rgb(255,255,153)">
      <circle r="15" clip-path="url(#clipPath2)" cx="315.008" cy="351.968" stroke="none"/>
    </g>
    <g text-rendering="geometricPrecision" stroke-miterlimit="1.45" shape-rendering="geometricPrecision" transform="matrix(1,0,0,1,-191,-58)" stroke-linecap="butt">
      <circle fill="none" r="15" clip-path="url(#clipPath2)" cx="315.008" cy="351.968"/>
      <text x="308.006" xml:space="preserve" y="356.6819" clip-path="url(#clipPath2)" font-family="sans-serif" stroke="none">T1</text>
    </g>
    <g fill="rgb(255,255,153)" text-rendering="geometricPrecision" shape-rendering="geometricPrecision" transform="matrix(1,0,0,1,-191,-58)" stroke="rgb(255,255,153)">
      <circle r="15" clip-path="url(#clipPath2)" cx="316.1056" cy="411.968" stroke="none"/>
    </g>
    <g text-rendering="geometricPrecision" stroke-miterlimit="1.45" shape-rendering="geometricPrecision" transform="matrix(1,0,0,1,-191,-58)" stroke-linecap="butt">
      <circle fill="none" r="15" clip-path="url(#clipPath2)" cx="316.1056" cy="411.968"/>
      <text x="309.1036" xml:space="preserve" y="416.6819" clip-path="url(#clipPath2)" font-family="sans-serif" stroke="none">T1</text>
    </g>
    <g fill="silver" text-rendering="geometricPrecision" shape-rendering="geometricPrecision" transform="matrix(1,0,0,1,-191,-58)" stroke="silver">
      <rect x="648.4032" y="63.2864" clip-path="url(#clipPath4)" width="179.448" rx="4" ry="4" height="109.2" stroke="none"/>
    </g>
    <g text-rendering="geometricPrecision" stroke-miterlimit="1.45" shape-rendering="geometricPrecision" transform="matrix(1,0,0,1,-191,-58)" stroke-linecap="butt">
      <rect x="648.4032" y="63.2864" clip-path="url(#clipPath2)" fill="none" width="179.448" rx="4" ry="4" height="109.2"/>
      <line y2="89.9876" fill="none" x1="648.4032" clip-path="url(#clipPath2)" x2="827.8512" y1="89.9876"/>
    </g>
    <g fill="silver" text-rendering="geometricPrecision" shape-rendering="geometricPrecision" transform="matrix(1,0,0,1,-191,-58)" stroke="silver">
      <rect x="681.7844" width="112.6855" height="18.7012" y="67.2864" clip-path="url(#clipPath2)" stroke="none"/>
    </g>
    <g stroke-linecap="butt" transform="matrix(1,0,0,1,-191,-58)" text-rendering="geometricPrecision" font-family="sans-serif" shape-rendering="geometricPrecision" font-weight="bold" stroke-miterlimit="1.45">
      <text x="683.7844" xml:space="preserve" y="81.3509" clip-path="url(#clipPath2)" stroke="none">ViewContentCache</text>
      <text x="652.4032" xml:space="preserve" y="108.052" clip-path="url(#clipPath2)" font-weight="normal" stroke="none">Picto P1, Path A.1, View A.1</text>
      <text x="652.4032" xml:space="preserve" y="122.7532" clip-path="url(#clipPath2)" font-weight="normal" stroke="none">Picto P1, Path A.2, View A.2</text>
      <text x="652.4032" xml:space="preserve" y="137.4544" clip-path="url(#clipPath2)" font-weight="normal" stroke="none">...</text>
      <text x="652.4032" xml:space="preserve" y="152.1555" clip-path="url(#clipPath2)" font-weight="normal" stroke="none">Picto P1, Path C.1, View C.1</text>
    </g>
    <g fill="rgb(255,204,153)" text-rendering="geometricPrecision" shape-rendering="geometricPrecision" transform="matrix(1,0,0,1,-191,-58)" stroke="rgb(255,204,153)">
      <rect x="522.6256" y="225.2" clip-path="url(#clipPath2)" width="30" rx="4" ry="4" height="201.768" stroke="none"/>
    </g>
    <g text-rendering="geometricPrecision" stroke-miterlimit="1.45" shape-rendering="geometricPrecision" transform="matrix(1,0,0,1,-191,-58)" stroke-linecap="butt">
      <rect x="522.6256" y="225.2" clip-path="url(#clipPath2)" fill="none" width="30" rx="4" ry="4" height="201.768"/>
      <text x="533.9606" y="294.045" clip-path="url(#clipPath2)" font-family="sans-serif" stroke="none" font-weight="bold" xml:space="preserve">F</text>
      <text x="535.9586" y="308.7461" clip-path="url(#clipPath2)" font-family="sans-serif" stroke="none" font-weight="bold" xml:space="preserve">I</text>
      <text x="533.9606" y="323.4473" clip-path="url(#clipPath2)" font-family="sans-serif" stroke="none" font-weight="bold" xml:space="preserve">L</text>
      <text x="533.9606" y="338.1485" clip-path="url(#clipPath2)" font-family="sans-serif" stroke="none" font-weight="bold" xml:space="preserve">T</text>
      <text x="533.6237" y="352.8496" clip-path="url(#clipPath2)" font-family="sans-serif" stroke="none" font-weight="bold" xml:space="preserve">E</text>
      <text x="533.2926" y="367.5508" clip-path="url(#clipPath2)" font-family="sans-serif" stroke="none" font-weight="bold" xml:space="preserve">R</text>
      <text x="339.7584" xml:space="preserve" y="465.2017" clip-path="url(#clipPath2)" font-family="sans-serif" stroke="none">The template has not</text>
      <text x="353.4283" xml:space="preserve" y="479.9029" clip-path="url(#clipPath2)" font-family="sans-serif" stroke="none">been processed</text>
      <path fill="none" d="M492.6256 411.968 L575.2096 411.968" clip-path="url(#clipPath2)"/>
      <path d="M583.2096 411.968 L571.2096 406.968 L574.2096 411.968 L571.2096 416.968 Z" clip-path="url(#clipPath2)" stroke="none"/>
      <path fill="none" d="M492.6256 296.084 L575.2096 296.084" clip-path="url(#clipPath2)"/>
      <path d="M583.2096 296.084 L571.2096 291.084 L574.2096 296.084 L571.2096 301.084 Z" clip-path="url(#clipPath2)" stroke="none"/>
      <path fill="none" d="M492.6256 240.2 L575.2096 240.2" clip-path="url(#clipPath2)"/>
      <path d="M583.2096 240.2 L571.2096 235.2 L574.2096 240.2 L571.2096 245.2 Z" clip-path="url(#clipPath2)" stroke="none"/>
      <path fill="none" d="M613.2096 240.2 L635.2096 240.2" clip-path="url(#clipPath2)"/>
      <path d="M643.2096 240.2 L631.2096 235.2 L634.2096 240.2 L631.2096 245.2 Z" clip-path="url(#clipPath2)" stroke="none"/>
      <path fill="none" d="M613.2096 296.084 L635.2096 296.084" clip-path="url(#clipPath2)"/>
      <path d="M643.2096 296.084 L631.2096 291.084 L634.2096 296.084 L631.2096 301.084 Z" clip-path="url(#clipPath2)" stroke="none"/>
      <path fill="none" d="M613.2096 411.968 L635.2096 411.968" clip-path="url(#clipPath2)"/>
      <path d="M643.2096 411.968 L631.2096 406.968 L634.2096 411.968 L631.2096 416.968 Z" clip-path="url(#clipPath2)" stroke="none"/>
      <path fill="none" stroke-dasharray="6,2" d="M598.2096 225.2 L598.2096 180.4716" clip-path="url(#clipPath2)"/>
      <path stroke-dasharray="6,2" d="M598.2096 172.4716 L593.2096 184.4716 L598.2096 181.4716 L603.2096 184.4716 Z" clip-path="url(#clipPath2)" stroke="none"/>
      <text x="609.6083" y="187.8559" clip-path="url(#clipPath2)" font-family="sans-serif" stroke="none" font-weight="bold" xml:space="preserve">Record</text>
      <text x="605.6063" y="202.5571" clip-path="url(#clipPath2)" font-family="sans-serif" stroke="none" font-weight="bold" xml:space="preserve">Property</text>
      <text x="602.5887" y="217.2582" clip-path="url(#clipPath2)" font-family="sans-serif" stroke="none" font-weight="bold" xml:space="preserve">Accesses</text>
      <path fill="none" d="M265.528 267.392 L292.008 267.392" clip-path="url(#clipPath2)"/>
      <path d="M300.008 267.392 L288.008 262.392 L291.008 267.392 L288.008 272.392 Z" clip-path="url(#clipPath2)" stroke="none"/>
      <path fill="none" d="M329.2302 262.6245 L349.0404 255.9837" clip-path="url(#clipPath2)"/>
      <path d="M356.6256 253.4411 L343.6587 252.5144 L348.0923 256.3016 L346.837 261.9958 Z" clip-path="url(#clipPath2)" stroke="none"/>
      <path fill="none" d="M329.1494 272.394 L349.0835 279.4448" clip-path="url(#clipPath2)"/>
      <path d="M356.6256 282.1125 L346.9798 273.3971 L348.1407 279.1113 L343.6451 282.8247 Z" clip-path="url(#clipPath2)" stroke="none"/>
      <path fill="none" d="M265.528 351.968 L292.008 351.968" clip-path="url(#clipPath2)"/>
      <path d="M300.008 351.968 L288.008 346.968 L291.008 351.968 L288.008 356.968 Z" clip-path="url(#clipPath2)" stroke="none"/>
      <path fill="none" d="M330.008 351.968 L348.6256 351.968" clip-path="url(#clipPath2)"/>
      <path d="M356.6256 351.968 L344.6256 346.968 L347.6256 351.968 L344.6256 356.968 Z" clip-path="url(#clipPath2)" stroke="none"/>
      <path fill="none" d="M265.528 411.968 L293.1056 411.968" clip-path="url(#clipPath2)"/>
      <path d="M301.1056 411.968 L289.1056 406.968 L292.1056 411.968 L289.1056 416.968 Z" clip-path="url(#clipPath2)" stroke="none"/>
      <path fill="none" d="M331.1056 411.968 L348.6256 411.968" clip-path="url(#clipPath2)"/>
      <path d="M356.6256 411.968 L344.6256 406.968 L347.6256 411.968 L344.6256 416.968 Z" clip-path="url(#clipPath2)" stroke="none"/>
      <path fill="none" stroke-dasharray="6,2" d="M779.2096 240.2 L810.112 240.2 L810.112 180.4845" clip-path="url(#clipPath2)"/>
      <path stroke-dasharray="6,2" d="M810.112 172.4845 L805.112 184.4845 L810.112 181.4845 L815.112 184.4845 Z" clip-path="url(#clipPath2)" stroke="none"/>
      <text x="743.7654" y="209.244" clip-path="url(#clipPath2)" font-family="sans-serif" stroke="none" font-weight="bold" xml:space="preserve">Store View</text>
      <path fill="none" stroke-dasharray="6,2" d="M540.6 172.4689 L540.6 217.1656" clip-path="url(#clipPath2)"/>
      <path stroke-dasharray="6,2" d="M540.6 225.1656 L545.6 213.1656 L540.6 216.1656 L535.6 213.1656 Z" clip-path="url(#clipPath2)" stroke="none"/>
      <text x="387.57" y="187.1862" clip-path="url(#clipPath2)" font-family="sans-serif" stroke="none" font-weight="bold" xml:space="preserve">Use Information in the PA</text>
      <text x="432.8864" y="201.8873" clip-path="url(#clipPath2)" font-family="sans-serif" stroke="none" font-weight="bold" xml:space="preserve">to filter Promises </text>
      <text x="422.2282" y="216.5885" clip-path="url(#clipPath2)" font-family="sans-serif" stroke="none" font-weight="bold" xml:space="preserve">need (re)generation</text>
      <path fill="none" d="M492.6256 351.968 L514.6091 351.968" clip-path="url(#clipPath2)"/>
      <path d="M522.6091 351.968 L510.6091 346.968 L513.6091 351.968 L510.6091 356.968 Z" clip-path="url(#clipPath2)" stroke="none"/>
    </g>
    <g stroke-linecap="round" transform="matrix(1,0,0,1,-191,-58)" stroke-dashoffset="2" text-rendering="geometricPrecision" shape-rendering="geometricPrecision" stroke-dasharray="0,8" stroke-width="2" stroke-miterlimit="1.45">
      <path fill="none" d="M396.1256 426.968 L396.1256 452.8384" clip-path="url(#clipPath2)"/>
    </g>
  </g>
</svg>
